<svg id="svg4408" height="512" width="512" viewBox="16 16 512 512" xmlns="http://www.w3.org/2000/svg" xmlns:xlink="http://www.w3.org/1999/xlink" xmlns:cc="http://creativecommons.org/ns#" xmlns:dc="http://purl.org/dc/elements/1.1/" xmlns:inkscape="http://www.inkscape.org/namespaces/inkscape" xmlns:rdf="http://www.w3.org/1999/02/22-rdf-syntax-ns#" xmlns:sodipodi="http://sodipodi.sourceforge.net/DTD/sodipodi-0.dtd" xmlns:svg="http://www.w3.org/2000/svg">
   <defs id="defs4410">
      <g id="s">
         <g id="c">
            <path id="t" d="m0 0v1h.5z" transform="matrix(.951 .309 -.309 .951 0 -1)"/>
            <use id="use11" transform="scale(-1 1)" xlink:href="#t"/>
         </g>
         <g id="a">
            <use id="use14" transform="matrix(.309 .951 -.951 .309 0 0)" xlink:href="#c"/>
            <use id="use16" transform="matrix(-.809 .588 -.588 -.809 0 0)" xlink:href="#c"/>
         </g>
         <use id="use18" transform="scale(-1 1)" xlink:href="#a"/>
      </g>
   </defs>
   <g id="layer1" transform="translate(0 448)">
      <path id="path3018" d="m-117.1875-52.0625c0 115.634619-93.74038 209.375-209.375 209.375s-209.375-93.740381-209.375-209.375c0-115.63462 93.74038-209.375 209.375-209.375s209.375 93.74038 209.375 209.375z" fill="#2980b9" transform="matrix(1.146 0 0 1.146 630.328 -132.322)"/>
      <g id="g30762" fill="#f1c40f" transform="matrix(1.081 0 0 1.081 705.443 107.133)">
         <path id="path26979" d="m-415.63855-411.04713 3.97601 12.19423h12.83463l-10.37977 7.55135 3.94911 12.19423-10.37998-7.52467-10.37956 7.52467 3.94912-12.19423-10.37977-7.55135h12.86109z"/>
         <path id="path26981" d="m-475.56905-395.09057 3.97602 12.22091 12.83462-.0213-10.37977 7.55135 3.9758 12.22091-10.37977-7.52467-10.40645 7.55135 3.9758-12.22091-10.40646-7.55135h12.8611l3.94911-12.22091"/>
         <path id="path26983" d="m-519.40935-351.30342 3.9758 12.19423h12.8613l-10.40666 7.55135 4.00248 12.22091-10.40624-7.55135-10.37977 7.57804 3.94912-12.22091-10.37977-7.55135h12.83462l3.94912-12.2207"/>
         <path id="path26985" d="m-355.84126-394.90379 4.00249 12.22092 12.83462-.0214-10.35308 7.57825 3.97558 12.22091-10.40624-7.55135-10.37998 7.55135 3.97601-12.19445-10.43314-7.55134 12.86131-.0211 3.92243-12.22091"/>
         <path id="path26987" d="m-296.97809-340.01642-10.37998 7.55135 3.97601 12.22091-10.37977-7.55134-10.40645 7.55134 3.97558-12.22091-10.40645-7.52466h12.83484l3.9758-12.2476 3.94911 12.22091z"/>
         <path id="path26989" d="m-280.4345-279.89914-10.43313 7.49799 3.92243 12.22091-10.35309-7.57803-10.43313 7.49798 4.00248-12.19423-10.3533-7.57803 12.83484.0427 4.02916-12.19423 3.92244 12.22091 12.8613.0427"/>
         <path id="path26991" d="m-302.39478-202.46445-10.37977-7.52467-10.40645 7.55135 3.9758-12.22091-10.40646-7.52467 12.83463-.0213 3.97558-12.22092 3.97602 12.22092 12.86109-.0214-10.40624 7.55135 3.9758 12.22091"/>
         <path id="path26993" d="m-424.95078-142.21376 3.92243-12.22091-10.37977-7.52466 12.83463-.0214 3.94912-12.22091 4.00248 12.19444 12.80794-.0214-10.35309 7.57804 4.00249 12.19422-10.40646-7.49798-10.37977 7.55135"/>
         <path id="path26995" d="m-484.96154-158.09027 3.94912-12.19423-10.40624-7.55135h12.86131l3.94911-12.24759 3.9758 12.22091 12.83463-.0214-10.37999 7.55135 4.00249 12.22091-10.40624-7.52466-10.37999 7.55242"/>
         <path id="path26997" d="m-346.20883-158.3571-10.37956-7.60472-10.43313 7.52467 4.02916-12.22091-10.35308-7.57803 12.83462.0427 4.00248-12.19423 3.92244 12.22091 12.86131.0213-10.43335 7.5236 3.94911 12.24759"/>
         <path id="path26999" d="m-550.81549-279.65899 12.83462-.0213 3.94912-12.2476 4.00248 12.19423 12.83462-.0213-10.3533 7.60472 4.00249 12.19423-10.40624-7.52467-10.40646 7.57803 3.94912-12.22091-10.40645-7.53534"/>
         <path id="path27001" d="m-528.82874-202.51782 3.94911-12.22091-10.40623-7.52467 12.8613-.0213 3.9758-12.22091 3.9758 12.22091h12.83441l-10.37955 7.55135 3.9758 12.19422-10.40646-7.52466-10.37998 7.55135"/>
      </g>
   </g>
</svg>