<svg width="16" height="16" viewBox="0 0 16 16" fill="none" xmlns="http://www.w3.org/2000/svg">
<path d="M10.0821 5.9179C8.20044 4.03628 5.69684 3 3.03247 3V4.96038C5.1732 4.96038 7.18452 5.79272 8.6959 7.3041C10.2073 8.81548 11.0396 10.8268 11.0396 12.9675H13C13 10.3032 11.9637 7.79952 10.0821 5.9179Z" fill="#F78422"/>
<path d="M3.01212 6.31738V8.27776C5.59804 8.27776 7.70187 10.3816 7.70187 12.9675H9.66225C9.66225 9.30063 6.67903 6.31738 3.01212 6.31738Z" fill="#F78422"/>
<path d="M4.40408 13.0221C5.17954 13.0221 5.80816 12.3935 5.80816 11.618C5.80816 10.8426 5.17954 10.2139 4.40408 10.2139C3.62863 10.2139 3 10.8426 3 11.618C3 12.3935 3.62863 13.0221 4.40408 13.0221Z" fill="#F78422"/>
</svg>
